<svg width="17" height="17" viewBox="0 0 17 17" fill="none" xmlns="http://www.w3.org/2000/svg"><path d="M16.4 7.7v-.5A8.1 8.1 0 0015 3.6l-.2-.3-.3-.4-.4-.4-.4-.3v-.1l-.3-.2-.2-.1-.3-.3h-.1l-.3-.2-.2-.1L12 1l-.5-.2A8.3 8.3 0 007.2.2l-.4.1h-.1l-.5.1h-.1l-.3.2h-.2l-.3.2h-.2l-.4.2-.4.2h-.1l-.8.6A7.9 7.9 0 00.9 5.2v.3l-.1.1-.1.3-.1.4-.1.3v.1a3.5 3.5 0 010 .4L.2 8.2v.6l.1.4A7.7 7.7 0 002 13.2l.3.3a11.2 11.2 0 00.4.4l.3.3.2.1.2.2.1.1.2.2H4l.1.2.3.1.1.1h.1l.3.2a8.3 8.3 0 004.7.8l.4-.1h.1l.5-.1h.1l.3-.2h.2l.3-.1.2-.1.3-.2h.2l.3-.2h.1a8.2 8.2 0 003.5-4.2l.1-.4.1-.4v-.3l.1-.1v-.3l.1-.4v-.8-.5zm-1 .5c-1.7 1.4-4.5 1.4-7 0 1.5 2.5 4 3.8 6 3.5a7 7 0 01-2.5 2.5c-2-.7-3.5-3.1-3.5-6-1.5 2.5-1.4 5.3 0 7-1.3 0-2.5-.4-3.5-1-.4-2.1 1-4.5 3.4-6-2.9 0-5.2 1.5-6 3.5-.6-1-1-2.2-1-3.5l.7-.4c.1-1.2.6-2.2 1.3-3.1h-1A7 7 0 015 2.2l1 .5A7 7 0 018.7 2h.1l-.5-.7a7 7 0 013.5 1v.3c.2 2-1.1 4.2-3.4 5.5v.1c2.7 0 5-1.3 5.9-3.2l.1-.2.4.7c.3.8.5 1.7.5 2.7z" fill="#F71273"/><path d="M8.4 8.2h-.1A7.2 7.2 0 003 7.4c.3-.9.7-1.7 1.4-2.4 1.4.5 2.9 1.6 3.9 3.2zm.1 0c-.1-1.9-.8-3.6-1.8-4.7a6 6 0 012.6-.4 7 7 0 01-.8 5z" fill="#F71273"/></svg>