<svg width="219" height="182" viewBox="0 0 219 182" fill="none" xmlns="http://www.w3.org/2000/svg">
<g clip-path="url(#clip0)"><path opacity=".1" d="M42 133h.1zm4.3-62L46 71l.2.1z" fill="#F1E136"/>
<path d="M103.2 161.3l-.2 2.1c.2 0 .5-.9.7-2 .3-1.2.3-2.1.2-2.2-.5-.1-.7.9-.7 2zM91 145c.4-1.8 2.6-6.5 2.4-6.6-.2-.1-2.2 4.3-3.2 6.1-1 1.9-1.7 3.5-1.5 3.6.8.5 1.7-1 2.3-3.1zm-45-73.5c-1 0-3.2-1-3.2-.8-.1.1 2 .9 3 1.3.9.4 1.6.6 1.7.5.2-.4-.5-.8-1.5-1zM9.8 159c-2.4 2-10 7-9.8 7.3.1.2 7.1-4.5 10.3-6.5 3.2-1.9 5.6-3.6 5.5-3.9-.4-1-3.3.7-6 3zm24-29.7c-1.3.9-5.1 3-5 3.1 0 .2 3.6-1.9 5.2-2.7 1.6-.8 2.9-1.5 2.9-1.7-.2-.5-1.7.2-3.1 1.3zm18-3.9c-.3.5-1.6 1.4-1.6 1.5.1.1 1.3-.7 2-1 .5-.3.9-.6.8-.8-.2-.4-.7-.2-1.1.3zm-9.5 4.9c-.4.4-1.7 1.3-1.6 1.4l1.8-1 1-.7c-.2-.5-.7-.3-1.2.3zm-19.7 2.5c-1.4.8-5.4 2.5-5.4 2.7l5.6-2.2c1.7-.6 3-1.2 3-1.4-.1-.5-1.6 0-3.2 1zm-.9 25.4c-1.1 1.2-4.5 3.9-4.5 4 .1.1 3.3-2.5 4.8-3.6 1.5-1 2.6-2 2.5-2.1-.2-.5-1.6.5-2.8 1.7zm38-12c-1.1 1.5-5 5.4-4.9 5.5.1.2 3.7-3.5 5.4-5 1.6-1.6 2.8-3 2.7-3.1-.3-.5-1.8.8-3.2 2.6zM70 51.6c-1-1.1-3-4.6-3.2-4.6-.2.1 1.9 3.4 2.6 4.9.8 1.5 1.5 2.6 1.7 2.5.7-.2 0-1.6-1-2.8zM65 42a44 44 0 00-3-4.2l2.6 4.2a26 26 0 002 3.5S65.6 43 65 42zm-13.2 5.8c-.8-1.3-4.7-7.7-4.6-7.8.1 0 3.4 5.3 4.8 7.2a71 71 0 013.9 5.9l-4-5.3zm.3 6.8l-3.3-4.6 3.3 4.2 2.8 3.5-2.8-3.1zm108.2 35.8c1-.8 4.8-2.3 4.7-2.5l-5 1.9c-1.3.6-1.7 1.4-1.6 1.6.2.6.8-.1 2-1zm8.1-.3c-1.1.2-4.2 2.1-4.3 2 0-.2 2.9-2 4-2.6 1.2-.6 2-.3 2.1-.2.4.6-.5.5-1.8.8zm-54.7 66c-.3-.5-.4-1.9-.6-1.9-.2 0 0 1.3 0 1.9-.1.6 0 1 .1 1 .7.2.8-.3.5-1zm24.5-39.3c-.5-.3-1.4-1.4-1.5-1.4-.2.1.6 1.2.9 1.7.2.5.6.9.7.8.7-.3.5-.8-.1-1zm57.5-35.7c0 1.2-.3 2-1.5 2s-3-.8-3-2c0-1.3.4-2.2 1.6-2.2 1.3 0 3 1 3 2.2zm7.3-20.9c.3.5.5 1 0 1.3-.5.3-1.4.5-1.7 0-.4-.4-.5-.9 0-1.2.4-.4 1.3-.5 1.7 0zm-40.7-21.2c.7.4 1.1.8.8 1.4-.4.7-1.3 1.5-2 1.1-.7-.3-1-.7-.7-1.4.3-.7 1.3-1.4 2-1z" fill="#F1E136"/><path d="M167.1 76.4c5.3-1.4 9-2.9 10.5-3 1.6-.2 14.9-1.2 14-1.7-.4-.4-7 .5-13.7 1-4.2.2-5.5-1.2-7.5-1-.4 0 1.5-2.3 3.5-3.7 2.6-1.9 5.4-2.9 3.8-2.6-.6.1-3 1-4.9 2.3-.6.4-6.5 2.5-7.9 3.4-1.4 1-3.7 2-4.6 2-5.4-.9-2.5-3-3.6-5-1.3-2.2 1.1-4.3 2.7-5.3 45.3-28-1.1.3-1.1-3.5 0-2.9 15.3-13 16-14.4.6-1.3-13 9.5-14.6 9.2-1.4-.4 9-7.8 8.5-9-.3-1-6.6 6.6-8.5 3.8-.8-1.1-2.5-.2-3.5-.2-9.9-.6 10.7-18.7 13.7-22.1 0 .4.5.7 1.2.9.8.3 1.8-.6 2-1.4.3-.8-.3-1.1-1.1-1.4-.9-.3-1.8.5-2 1.3l-.1.1c-1.6 1.2-8.6 8.7-13.5 13.5a2 2 0 00-.7-.5c-.6-.3-1.6.4-2 1-.2.7 0 1.1.6 1.4-1.6 1.5-2.8 2.4-3 2.1-.8-1 .1-3.7 0-4.5 0-2 4.4-.7 4.5-1.9 0-2.2-5.3-2-6.7-2.9-3-2-3.8-6.7-7.9-6.7-2.4 0-8.6 5.4-11.3 7.9-1.5 1.3-3.4 2.4-5 .8-2.8-1 5.6-7.2 9-9.8.4.1 1 .2 1.4.1.8-.1 1-.5.9-1-.1-.6-1.3-.8-2-.7-.9.1-1 .5-1 1l.2.4a57.6 57.6 0 00-11.8 10c-2 3.7-3.2 2.8-4.6 4.8-1.1 1.8-.7 3.8-4 3.3-3.4-.5-3.1.2-5.4 2-2.1 1.6-3.7.6-5.8 1.5-1.2.5-.2 1.8-1.4 2.1-1.7.6-3.8 1.3-5.5 1.4-2.4.2-2.3-6.8-3.2-8.7-.9-2-2.6-5.9-3.3-8-.7-2.2-.6-4.6-1.6-6.2-1.8-2.9-4-14-4.5-12.2-.6 1.7 4.9 15.3 4.9 16 .6 3-.7 1-1 2.7-.1 1.3.5 4.2.2 5.4a22 22 0 00-.5 3.9c.1 2.5.9 5-1.5 5.3-2.3.3-1.4-1.1-2.4-3.7-1-2.7-3.1-3.5-3.9-6.1-.7-2.4-1.7-6.4-3.3-10.2-.6-1.3-3.9-11.2-5-12.5a77 77 0 004 14.2c1.8 4.5 0 7.1 1 8.8 1.3 2.2 6.9 11.8 5 12-1.8 0-5.7-8.4-6-7.6 0 .3 4 8 2.3 7-1.7-1.1-8.4-11.4-8.4-11.4A43 43 0 0075 52.3c1.4 1.2 6 8.7 4.4 9.7-1.5 1-7.2-1-9.3-5.5-3-6.4-13.2-24.3-14.6-25.5-1.4-1.2 2.3 7.6 2 8.4-.4.8-1.2-.1-2 0-.6.2 4 7.2 3 8.3-.3.5-.7-.2-.9.4a7.4 7.4 0 001.4 6.3c4.4 5.5 1 8.6-5 5.2-3.3-1.8 2.1 1.7 4 4.1 1.3 1.9-1.4 3-1.2 3.3.7 1.7 7.8 6.4 2.7 6.5-3.9 0-11.2-1-11.5-.5-.3.5 6 4.2 7.4 7.4.6 1.3-5.2-1.9-4.7-1.4.6.7 10 4.5 9.6 6.7-.3 1.3-.9 1.1-1.1 2 0 .3.2 1 .7 1.6.2.6-2.3.3-2 .8.4.7 3.6 2.2 3.5 2.5-.2.7-3.8-.5-3.8.3 0 .3 3.6 3.6 4.6 5.5.4.8-1.7 1.5-1.7 2.6 0 1.9 1.8 2.3 2.1 3.5.4 1.4-1.8 3.3-1.5 3.8.6.8 2.6-1.1 3.4 1.3 1 2.8-.7 2.8-1 3.7-.4.8-.3 2.3-.5 2.4-.7.3-2 .4-2.7 2.5-.7 2 .5 2.1-.9 3.6-.6.7-7.2 5.6-14.2 11.6-9.9 8.6-21 19-20.5 18.8 1.2-.6 11.5-9.1 18.6-12.9 4.8-2.5 4.5-5.6 14.7-10.8 3-1.6 14.7-8.7 15.2-2.7.5 5.1-6.6 11.8-5 10.3 1.8-1.5 7.2-8.4 10.4-9.5 6.2-2.1 2.2 1.5 6 1.2 3.6-.3 6.5-1 7.5-1 10.4-.4-2 2.6-.7 3.8 5 .2 2.9 2.8 4 3.2 2.1.7 5-2.6 4.4 4.4-.1 1.7 4.4 15.2 4 17.3-.4 2.2.3.7 1 .2 1.9-1.4 1.7 18.8 5 25.8.6 1.2-2.2-15.3-2-15.5 0-1.2.2-3 0-4.4-1.5-6.2-3.7-12-2.4-13 2-1.8 4.8 16.2 5.5 15.8.7-.4-5.1-25.4-6-27.5-.7-2.2-.6-5.3 1.5-6 1.8-.6.6 6.8 1.9 6.4 0 0-1.1-9.4 2.9-6.9.4.3-1-3.3.6-3.4 2.6-.2 1-3.2 4-2.9 5 1.6 3.7-1 4.3-3.9.5-2 1.4-1.9 3.2 0 3.8 4 2.4 2.1 5.7 3.7 1.2.5 7.5 9.3 11.5 13.6 8.1 8.5 15.8 15.1 16.2 13.8 0 0-9.1-8-14.2-13.8-6.4-7.2-10.9-17.7-10.4-19.7.7-2.9-1.5-4.5-1-5.5.1-.2 2 .6 5 2.7 1 .7-.8-2 .6-2.2 1-.2 3.6 2.8 4.6 2.6 1-.3-2.4-2.7-1.5-3.1.5-.3 2.4 1 3.5.3.5-.3-.5-1.3 0-1.7.9-.5 7 4.1 10.6 5.6 2.5 1.1-7.5-5.2-7.7-6.4-.2-1.1 1.7-6.6 17.4-1.9 1.3-.2-5.3-1.8-8.2-3.7-2.5-1.8-7.9-3-7-3 9.1-1 6.5-2.4 11.6-2.4.7 0-.4-1 .3-1.4 0-1.6 12.6-.8 14.5-1.5 1.2-.4-5.8-.6-12.3-.8 2.1-1.7 6.7-2.4 6.5-2.6-.2-.2-4.4-.2-7.3 1.9l-1 .7h-1.4c-.7 1-1.5 1.5-1.9 1.3-.8-.5-.8-1-.5-1.4l-4.4-.1c-5.4-.1-1.1-2.6-1.8-3.9-.9-1.6-3-2.2-2.5-2.3.6-.1 4.6.2 5.2.2 6.2.4-2-2 1.8-2.1 4.9-.2 12.5-4.3 22.6-6.4 4-.8-12.7.7-13-.8-.8-2.9.8-3 2.3-3.5zM58 76.7c-.5.6-2.6 1.7-3.2 1.2-.5-.4-2.9-2.6-2.2-3 .5-.2 3.2-.1 3.7.3.6.5 2.2 1 1.7 1.5zm0 50c-2 1.2-5.9 4.2-6 3.9-.3-.3 3.4-3.6 5.2-5 1.7-1.2 3.2-2.7 3.8-1.4.1.3-1.2 1.5-3 2.6zm22.5-81.9c.1 0 .6 2 1.4 3 .7 1 1 1.7.9 1.8-.4.3-1-.9-1.5-2a8.2 8.2 0 01-.8-2.8zm1.9 76.3c-.1.4 0 1-.5 1-.3.1-.8 0-1-.4 0-.4 1.5-2.6 1.9-2.7.4 0-.3 1.3-.4 2zM122 39.7c-.2 0-.4-1-.3-1.4.2-.5.5-.5.8-.4.3.1.3.4.2.8-.2.4-.5 1-.7 1zm2.5 79.1c-.6-.5-2.2-1.9-1.7-2.2 0-.1.6.3 1.1 1l1.9 2c-.1.2-.7-.2-1.3-.8zm8 5.7s.4.2.6.7l1 1.6c-.2 0-.5-.2-.9-.7-.3-.4-1.3-1.4-.8-1.6zM150 85c-.1.1-.4 0-.5-.1-.6-.6-.3-.5 0-.5l1 .3c.1.2-.4.2-.5.3zm.5-47.1c-.4.7-1.3 1.4-2 1-.7-.3-1.2-1.2-.8-1.9.3-.6 1.4-.8 2-.5.7.3 1.1.7.8 1.4zm3.5 32.7c-.3.1-.7 0-.7-.4-.1-.4.2-.8.5-.9.3 0 1-.3 1.3-.1.4.2-.7 1.4-1 1.4zm5.1 12.5c-.9.8-1.8 1.3-2.1 1-1-1 .1-1.4 1.1-2 1.1-.8 3.8-2 4.1-1.6.3.3-2.2 1.7-3.1 2.6zm5.7-9.4c-1.1-1 0-1.4 1-2.1 1.1-.8 3.7-2.1 4-1.8.3.2-2 1.8-3 2.7-.8 1-1.7 1.4-2 1.2z" fill="#F1E136"/>
<path d="M173 85.3c.2.3.3.6 0 .8-.3.2-.9.3-1.1 0-.3-.3-.3-.5 0-.8.3-.2.8-.3 1 0z" fill="#F1E136"/>
<path fill-rule="evenodd" clip-rule="evenodd" d="M97.3 55.7l4-.5 2.6 21.7-4 .5-1-8.2-3.4.7 1.4 5.7-3.9 1-2-7.7-1.9-9 4-.9 1.4 7 3.9-.8-1.1-9.5zm-12.5 5.5a18 18 0 014 6.5c.7 1.7 1.3 3.2 1.5 4.5.2 1.3.2 2.8-1 4-.9 1.1-2.3 1.5-3.7 1.7-1.4.2-3.2.2-5.3.2-2.5 0-4.6-.8-5.8-2.5a7.4 7.4 0 01-1-5.5c.5-3.6 2.9-7.6 5.6-9.6.9-.6 1.9-1 3-.7 1 .1 2 .7 2.7 1.4zm-3.3 2.5a12.2 12.2 0 00-4.1 7c-.2 1.3 0 2 .3 2.5.3.4.9 1 2.6 1a37.8 37.8 0 006-.6v-.7c-.1-.8-.5-2-1.2-3.7a14.5 14.5 0 00-3-5c-.3-.4-.5-.5-.6-.5zm4.9 10v-.1zM123 47.5l1.5 21-4 .2-.6-8.6-3.9 6.2-4.6-3.9 1.8 11.1-3.9.7-3.6-21.7 9.4 7.8 8-12.8zm6.5 17.1l-3.8-6 3.4-2.2 3.2 5.3 4.8-2.8 2 3.5-5.8 3.3-1.9 6.1-3.8-1.2 1.9-6zm10.7 10c1 0 2.4 0 3.4.8l-2.7 4.2h-.5c-.5 0-1 0-1.2.3-.3.1-.4.3-.5.4 0 .1 0 .6.4 1.5.7 1.8 1.6 3 2.6 4.3.5.5 1 1.1 1.4 1.8 1.5 2.2 2.9 4.8 2.9 8.8 0 2.1-.1 5.8-3 8.3-2.7 2.5-7.4 3.2-14.6 2l.9-5c6.8 1.2 9.5.2 10.4-.7 1-1 1.3-2.4 1.3-4.6 0-2.6-.8-4.3-2-6a44 44 0 00-1-1.2c-1-1.5-2.5-3.3-3.5-5.6-.8-1.7-1-3.5-.5-5a5.7 5.7 0 012.7-3.4c1.1-.6 2.4-1 3.5-1zm-39 11.2c-.2.3-.4 1 .2 2.2.6 1.6 1.1 3.7 1.5 5.9.5.2 1.6.4 3.5.4.9 0 1.2-.2 1.3-.3.1-.1.3-.4.4-1.1.1-1.5-.4-3.9-1.6-6.5-.6-1.2-2.3-2-4-1.5-.7.2-1.1.6-1.3 1zm2.5 13.4l2.7.1c1.8 0 3.5-.5 4.7-1.7a6.6 6.6 0 002-4.2c.2-2.8-.7-6.2-2-9-1.9-4.1-6.5-5.2-9.9-4.3a7 7 0 00-4.4 3.4c-1 1.9-1 4.2 0 6.5a81.2 81.2 0 012.6 15.9c0 3.4-.3 6.3-1.1 8.7l4.6 1.8c1.2-3.3 1.5-7 1.4-10.7 0-2.1-.3-4.3-.6-6.5zM83 82.3a12 12 0 017.3 5.5L86 90.5a7 7 0 00-4.2-3.4c-1.5-.4-3.5-.1-5.8 1.2-.7.4-1.4 1.2-2 2.4a8.6 8.6 0 00-.9 3.6c0 1.2.4 2.1.8 2.6s1.1 1 2.7 1c1.9 0 3-.2 3.9-.5l1.8-1 .2-.1c.6-.4 1.4-1 2.5-1.4 1.3-.5 2.7-.6 4.6-.5a8 8 0 015.8 3.8c1.3 2 2 4.4 2.2 7 .2 5-2.1 10.7-8.7 12.8-5.5 1.7-10.4 1-14.2-.9-3.6-1.8-6.3-5-6.7-8.4l5-.6c.1 1.3 1.4 3.3 4 4.6 2.5 1.3 6.1 1.8 10.4.5 3.9-1.2 5.3-4.4 5.2-7.8a9 9 0 00-1.4-4.4c-.7-1.1-1.5-1.5-2-1.6-1.4-.1-2.1 0-2.5.2-.4.1-.7.3-1.4.8l-.1.1c-.7.5-1.7 1.2-3.1 1.6-1.5.5-3.2.8-5.5.8-2.8 0-5-1-6.5-2.7a9 9 0 01-2-5.9c0-2 .6-4 1.4-5.8 1-1.8 2.2-3.5 4-4.5 3.1-1.8 6.4-2.5 9.4-1.8zm48.2 9.4c-2 .2-3.1 1.3-3.3 1.6l-.5.8-.3 6.4-5-.2.6-11.3 2.7-.2c1.5-1.2 3.7-2.2 6.5-2.2a4.1 4.1 0 014 3c.4 1.2.4 2.7.3 4-.3 2.7-1.2 5.7-2 7.7l-4.7-1.8a29 29 0 001.7-7.8zm-19.3 11.6c3.4-5.7 4-12.5 4-14.2h5c0 2-.6 10-4.7 16.8l-4.3-2.6z" fill="#07064A"/>
</g>
<defs><clipPath id="clip0"><path fill="#fff" d="M0 0h218.9v181.6H0z"/></clipPath></defs>
</svg>
