<svg width="540" height="540" viewBox="0 0 540 540" fill="none" xmlns="http://www.w3.org/2000/svg">
<rect width="540" height="540" fill="#00C2FF"/>
<g clip-path="url(#clip0)">
<path opacity="0.1" d="M113.533 383.173L113.63 383.077C113.63 383.101 113.606 383.125 113.606 383.149C113.581 383.173 113.557 383.173 113.533 383.173ZM123.608 233.954C123.439 233.858 123.271 233.738 123.102 233.593L123.174 233.569C123.319 233.689 123.463 233.834 123.608 233.954V233.954Z" fill="#F1E136"/>
<path d="M260.909 451.432C261.029 453.958 260.106 456.588 260.431 456.655C260.757 456.723 261.497 454.493 262.085 451.678C262.673 448.86 262.878 446.554 262.56 446.455C261.362 446.076 260.771 448.557 260.909 451.432V451.432ZM231.108 412.123C232.243 407.787 237.563 396.603 237.049 396.317C236.536 396.03 231.737 406.635 229.25 411.084C226.762 415.534 225.193 419.327 225.675 419.662C227.502 420.935 229.819 417.057 231.108 412.123ZM122.639 235.136C120.523 234.858 115.062 232.836 114.922 233.14C114.782 233.441 119.959 235.225 122.133 236.23C124.307 237.235 126.158 237.794 126.322 237.505C126.942 236.411 125.047 235.451 122.639 235.136V235.136ZM35.6773 445.664C29.8252 450.692 11.7627 462.69 12.1074 463.262C12.4521 463.833 29.2781 452.355 36.9258 447.73C44.5736 443.105 50.4064 438.944 50.1509 438.323C49.182 435.975 42.332 439.947 35.6773 445.664V445.664ZM93.562 374.063C90.4986 376.28 81.1829 381.407 81.3276 381.698C81.4722 381.99 90.1636 377.071 94.0875 375.123C98.0138 373.176 101.031 371.38 100.933 371.067C100.554 369.881 97.0448 371.542 93.562 374.063V374.063ZM137.171 364.819C136.255 365.972 133.069 368.056 133.213 368.35C133.358 368.645 136.298 366.574 137.696 365.88C139.094 365.186 140.092 364.393 139.962 364.096C139.48 362.964 138.207 363.513 137.168 364.819H137.171ZM114.112 376.427C113.198 377.577 110.01 379.662 110.154 379.956C110.299 380.25 113.239 378.179 114.637 377.488C116.035 376.794 117.033 376.001 116.905 375.699C116.418 374.567 115.148 375.118 114.109 376.427H114.112ZM66.5961 382.655C63.3181 384.54 53.518 388.664 53.6313 388.97C53.747 389.276 62.9012 385.29 67.0082 383.764C71.1153 382.236 74.3041 380.766 74.239 380.443C73.9883 379.223 70.3247 380.51 66.5961 382.653V382.655ZM64.4003 443.859C61.7563 446.563 53.4409 453.187 53.6337 453.452C53.8265 453.717 61.5586 447.397 65.0993 444.816C68.64 442.234 71.3105 439.952 71.1587 439.66C70.5875 438.554 67.4083 440.783 64.4003 443.859V443.859ZM156.086 414.784C153.233 418.513 143.977 427.92 144.255 428.219C144.532 428.515 153.115 419.571 157.092 415.859C161.066 412.147 164.016 408.937 163.787 408.599C162.917 407.322 159.333 410.547 156.086 414.784V414.784ZM180.664 187.01C178.309 184.347 173.298 175.906 172.884 176.116C172.467 176.33 177.328 184.171 179.157 187.774C180.989 191.375 182.79 194.082 183.224 193.913C184.867 193.274 183.339 190.037 180.664 187.01V187.01ZM168.584 164.154C167.552 162.327 161.473 153.838 161.249 153.968C161.023 154.098 165.882 161.288 167.482 164.197C169.639 168.121 172.295 172.63 172.539 172.534C172.539 172.534 169.967 166.605 168.584 164.154V164.154ZM136.814 178.087C134.741 175.091 125.471 159.56 125.708 159.398C125.944 159.237 133.878 172.03 137.195 176.747C141.671 183.113 146.764 190.647 146.564 190.862C146.564 190.862 139.603 182.11 136.814 178.087V178.087ZM137.371 194.561C135.934 192.816 129.424 183.677 129.566 183.559C129.711 183.443 135.262 190.956 137.556 193.698C140.654 197.403 144.187 201.797 144.071 201.946C144.071 201.946 139.304 196.904 137.371 194.561ZM398.25 280.771C400.662 278.805 409.747 275.228 409.578 274.857C409.407 274.485 400.771 277.898 397.551 279.373C394.331 280.849 393.499 282.892 393.632 283.278C394.133 284.739 395.502 283.006 398.247 280.771H398.25ZM417.831 280.135C415.071 280.701 407.544 285.216 407.356 284.857C407.17 284.495 414.336 280.215 417.156 278.744C419.976 277.274 421.952 277.932 422.172 278.272C422.998 279.559 420.966 279.492 417.831 280.135ZM285.913 439.383C285.189 438.111 284.948 434.688 284.5 434.635C284.052 434.587 284.447 437.816 284.29 439.2C284.134 440.583 284.375 441.731 284.821 441.798C286.498 442.046 286.734 440.834 285.913 439.383ZM344.959 344.489C343.67 343.785 341.664 341.004 341.254 341.197C340.845 341.389 342.886 343.93 343.481 345.188C344.077 346.446 344.887 347.292 345.299 347.116C346.858 346.441 346.42 345.284 344.957 344.489H344.959ZM483.614 258.342C483.614 261.301 482.929 263.396 479.967 263.396C477.007 263.396 472.895 261.299 472.895 258.342C472.895 255.379 473.7 253.249 476.66 253.249C479.62 253.249 483.614 255.379 483.614 258.342ZM501.076 208.158C501.939 209.286 502.291 210.283 501.163 211.146C500.035 212.009 497.856 212.414 496.993 211.286C496.13 210.158 495.812 209.112 496.94 208.249C498.068 207.386 500.213 207.03 501.076 208.158V208.158ZM403.14 157.051C404.748 157.846 405.695 158.793 404.878 160.444C404.058 162.098 401.783 163.828 400.178 163.033C398.568 162.237 397.633 161.213 398.45 159.562C399.269 157.909 401.53 156.253 403.14 157.051Z" fill="#F1E136"/>
<path d="M414.873 246.977C427.696 243.579 436.421 239.915 440.278 239.554C444.134 239.192 475.998 236.758 474.118 235.553C472.985 234.613 457.053 236.806 440.832 237.77C430.829 238.349 427.696 235.143 422.755 235.553C421.767 235.625 426.395 230.057 431.311 226.562C437.554 222.152 444.254 219.645 440.446 220.32C438.904 220.585 433.36 222.561 428.612 225.936C427.214 226.924 412.921 231.937 409.571 234.155C406.245 236.372 400.749 239.096 398.508 238.758C385.541 236.758 392.338 231.624 389.759 226.948C386.77 221.477 392.554 216.439 396.314 214.101C505.571 146.783 393.615 214.704 393.615 205.69C393.615 198.724 430.516 174.188 432.107 170.982C433.722 167.776 400.749 193.952 396.989 193.084C393.615 192.265 418.513 174.308 417.597 171.633C416.778 169.198 401.593 187.251 396.989 180.647C395.061 177.875 391.108 180.213 388.529 180.045C364.812 178.574 414.391 135.141 421.526 126.754C421.791 127.79 422.9 128.465 424.394 128.947C426.467 129.622 428.781 127.525 429.383 125.669C429.986 123.813 428.66 122.921 426.587 122.247C424.514 121.572 422.225 123.572 421.622 125.428L421.55 125.717C417.718 128.561 400.942 146.566 389.011 158.135C388.674 157.726 388.12 157.388 387.469 157.051C385.854 156.255 383.588 157.918 382.769 159.557C382.022 161.076 382.721 162.04 384.07 162.787C380.069 166.475 377.249 168.596 376.719 167.825C374.911 165.197 377.057 158.979 376.912 156.858C376.599 151.917 387.421 155.267 387.541 152.399C387.734 147.193 374.863 147.53 371.537 145.385C364.089 140.54 362.306 129.26 352.496 129.26C346.543 129.26 331.695 142.372 325.212 148.181C321.621 151.362 316.945 154.014 313.209 150.278C306.364 147.916 326.754 132.852 334.708 126.537C335.745 126.898 337.094 126.995 338.179 126.85C340.156 126.585 340.493 125.621 340.324 124.319C340.131 123.042 337.36 122.463 335.383 122.729C333.407 122.994 332.997 123.982 333.166 125.259C333.214 125.573 333.407 125.838 333.72 126.079C325.766 131.454 308.196 144.686 305.183 150.278C300.362 159.22 297.373 156.858 294.168 161.823C291.396 166.113 292.36 170.837 284.334 169.632C276.332 168.427 276.886 170.307 271.511 174.429C266.305 178.454 262.473 176.043 257.484 178.237C254.688 179.49 257.002 182.407 254.182 183.347C249.988 184.769 244.902 186.383 240.853 186.673C235.044 187.058 235.382 170.138 233.188 165.535C230.971 160.931 226.946 151.435 225.234 146.18C223.523 140.95 223.764 135.382 221.233 131.357C216.895 124.488 211.785 97.7583 210.411 101.904C209.013 106.05 222.246 138.805 222.222 140.372C223.837 147.795 220.607 143.119 220.028 147.193C219.594 150.181 221.017 157.171 220.462 160.039C219.739 163.823 219.161 167.222 219.209 169.439C219.426 175.61 221.233 181.442 215.618 182.262C210.002 183.057 212.147 179.538 209.809 173.248C207.447 166.933 202.168 164.956 200.385 158.617C198.77 152.857 196.191 143.168 192.359 134.153C190.985 130.923 183.103 106.966 180.355 103.904C178.138 101.47 187.056 129.791 190.165 138.178C194.214 149.097 189.924 155.339 192.479 159.461C195.637 164.571 208.965 187.902 204.554 188.167C200.047 188.408 190.744 168.162 190.117 169.873C190.165 170.765 199.613 189.276 195.516 186.721C191.394 184.166 175.246 159.413 175.246 159.413C175.342 162.016 186.96 183.78 192.961 188.866C196.215 191.614 207.254 209.811 203.542 212.27C199.927 214.656 186.044 209.594 181.079 198.893C173.992 183.563 149.287 140.444 145.841 137.479C142.514 134.635 151.529 155.821 150.589 157.798C149.769 159.509 147.817 157.364 146.082 157.798C144.346 158.232 155.458 175.007 153.288 177.755C152.421 178.863 151.456 177.273 150.999 178.55C149.793 181.9 150.275 188.962 154.228 193.855C164.93 207.088 156.759 214.511 142.37 206.437C134.368 201.954 147.383 210.39 151.698 216.319C154.927 220.754 148.516 223.405 148.902 224.249C150.733 228.274 167.894 239.722 155.506 239.891C146.226 240.036 128.535 237.626 127.86 238.758C127.161 239.915 142.081 248.833 145.672 256.594C147.118 259.655 133.018 252.015 134.199 253.244C135.79 254.931 158.302 264.066 157.362 269.272C156.807 272.454 155.289 272.044 154.759 274.165C154.614 274.743 155.385 276.286 156.373 278.07C157.072 279.323 150.926 278.648 151.625 279.901C152.613 281.685 160.302 285.3 160.109 285.903C159.579 287.59 150.878 284.818 150.902 286.65C150.902 287.373 159.579 295.279 161.917 299.81C162.978 301.883 158.037 303.618 158.037 306.101C158.037 310.656 162.182 311.813 162.978 314.561C163.942 317.911 158.567 322.539 159.386 323.648C160.929 325.793 165.556 321.093 167.533 326.781C169.871 333.602 165.798 333.747 164.93 335.868C164.159 337.748 164.448 341.387 163.918 341.628C162.23 342.375 159.193 342.568 157.434 347.509C155.674 352.426 158.76 352.739 155.289 356.379C153.867 357.873 137.887 369.708 121.111 384.29C97.2739 405.042 70.6406 430.229 71.7493 429.651C74.6416 428.084 99.4673 407.525 116.484 398.462C127.956 392.34 127.258 384.94 151.914 372.407C159.266 368.695 187.369 351.366 188.623 365.875C189.731 378.312 172.57 394.389 176.692 390.821C180.813 387.23 193.757 370.479 201.445 367.876C216.606 362.742 206.965 371.419 215.81 370.672C224.68 369.949 231.694 368.334 234.056 368.261C259.099 367.394 229.308 374.673 232.513 377.613C244.541 377.878 239.31 384.193 241.865 385.109C247.12 386.941 253.892 378.963 252.687 395.859C252.398 399.956 263.244 432.35 262.304 437.532C261.364 442.738 263.075 439.243 264.835 437.942C269.246 434.688 268.908 483.423 276.766 500.295C278.14 503.188 271.487 463.346 272.114 462.792C271.921 460.02 272.451 455.585 271.704 452.235C268.33 437.339 263.124 423.48 266.088 420.877C271.102 416.467 277.609 459.827 279.345 458.983C281.08 458.116 267.004 397.763 265.124 392.605C263.22 387.447 263.389 379.855 268.595 378.192C272.861 376.818 269.921 394.726 273.126 393.641C273.126 393.641 270.451 370.937 280.068 377.083C281.104 377.758 277.899 369.129 281.683 368.816C287.829 368.261 284.093 361.055 291.324 361.898C303.062 365.61 300.145 359.488 301.688 352.547C302.797 347.437 305.038 347.847 309.184 352.233C318.536 362.115 314.968 357.56 323.091 361.32C325.814 362.573 341.12 383.663 350.857 394.051C370.26 414.683 388.722 430.591 389.879 427.313C389.879 427.313 367.849 408.223 355.485 394.244C340.131 376.866 329.382 351.486 330.563 346.569C332.202 339.7 326.827 335.747 328.08 333.481C328.442 332.807 333.069 334.952 340.059 339.941C342.421 341.652 338.155 335.169 341.65 334.542C344.205 334.084 350.182 341.459 352.689 340.76C355.051 340.086 347.001 334.349 349.073 333.337C350.279 332.758 354.954 335.747 357.485 334.132C358.787 333.313 356.304 331.071 357.678 330.131C359.63 328.806 374.574 340.013 383.13 343.629C389.156 346.159 364.909 330.927 364.499 328.131C364.089 325.335 368.5 312.102 406.389 323.527C409.595 322.924 393.711 319.213 386.746 314.513C380.527 310.295 367.729 307.499 369.705 307.282C391.759 304.896 385.541 301.69 397.761 301.69C399.52 301.69 396.797 299.063 398.363 298.268C398.58 294.363 428.732 296.267 433.457 294.676C436.252 293.736 419.357 293.086 403.69 292.7C408.848 288.675 419.839 286.963 419.405 286.457C418.971 285.927 408.848 285.927 401.906 290.964C401.111 291.543 400.267 292.073 399.52 292.579H399.496L396.073 292.507C394.314 294.917 392.434 296.363 391.542 295.857C389.493 294.7 389.445 293.543 390.168 292.362C385.107 292.29 381.226 292.218 379.732 292.17C366.692 291.856 376.912 285.855 375.321 282.842C373.272 279.01 367.946 277.491 369.32 277.226C370.862 276.937 380.407 277.756 381.925 277.829C396.772 278.648 376.816 272.839 386.264 272.55C397.953 272.213 416.199 262.186 440.639 257.197C450.473 255.196 410.101 258.908 409.185 255.389C407.353 248.375 411.138 247.966 414.873 246.977V246.977ZM151.698 247.652C150.492 249.05 145.383 251.75 144.009 250.593C142.659 249.436 136.995 244.133 138.658 243.362C139.935 242.783 146.274 242.928 147.648 244.085C149.022 245.242 152.879 246.23 151.698 247.652ZM151.481 368.261C146.973 370.913 137.453 378.24 136.995 377.493C136.537 376.721 145.383 368.768 149.842 365.49C153.77 362.597 157.338 359.054 158.832 362.067C159.242 362.838 155.988 365.61 151.481 368.261ZM205.952 170.693C206.169 170.5 207.302 175.706 209.158 178.044C211.014 180.382 211.568 181.997 211.375 182.19C210.58 182.985 209.11 180.093 207.881 177.393C206.579 174.549 205.711 170.861 205.952 170.693V170.693ZM210.387 354.547C210.17 355.463 210.291 356.909 209.375 357.126C208.459 357.367 207.23 356.885 207.013 355.969C206.796 355.029 210.532 349.871 211.424 349.654C212.34 349.413 210.749 352.788 210.387 354.547V354.547ZM306.147 158.497C305.713 158.497 305.11 155.918 305.52 154.93C305.93 153.941 306.629 153.821 307.352 154.11C308.051 154.399 308.171 155.074 307.762 156.087C307.352 157.075 306.701 158.497 306.147 158.497ZM312.197 349.076C310.847 347.75 306.846 344.472 307.979 343.653C308.292 343.436 309.545 344.52 310.847 346.111C312.124 347.702 315.547 350.956 315.258 351.173C314.968 351.414 313.739 350.618 312.197 349.076V349.076ZM331.238 362.766C331.575 362.597 332.346 363.393 332.949 364.55C333.576 365.707 335.528 368.045 335.19 368.237C334.877 368.406 334.058 367.828 333.19 366.719C332.419 365.755 329.984 363.369 331.238 362.766ZM373.586 267.561C373.297 267.85 372.742 267.754 372.381 267.344C370.934 265.874 371.73 266.163 372.212 266.139C372.766 266.091 374.405 266.524 374.791 266.934C375.177 267.32 373.875 267.296 373.586 267.561ZM374.767 154.062C373.947 155.725 371.658 157.436 370.067 156.641C368.452 155.846 367.223 153.652 368.042 151.989C368.862 150.35 371.417 149.868 373.031 150.663C374.622 151.459 375.586 152.399 374.767 154.062ZM383.396 232.974C382.648 233.142 381.684 232.684 381.491 231.841C381.299 230.997 381.973 230.033 382.721 229.864C383.492 229.696 385.324 229.093 386.023 229.503C386.89 230.009 384.167 232.781 383.396 232.974ZM395.567 262.981C393.422 265.03 391.157 266.139 390.482 265.488C387.951 263.006 390.867 262.041 393.205 260.523C395.905 258.788 402.412 255.992 403.063 256.667C403.714 257.366 397.737 260.909 395.567 262.981V262.981ZM409.33 240.325C406.655 238.011 409.499 236.878 411.788 235.215C414.367 233.335 420.73 230.202 421.405 230.853C422.104 231.479 416.32 235.384 414.271 237.553C412.222 239.722 410.053 240.952 409.33 240.325Z" fill="#F1E136"/>
<path d="M429.014 268.303C429.576 269.038 429.805 269.686 429.069 270.25C428.334 270.814 426.915 271.075 426.351 270.342C425.789 269.607 425.584 268.925 426.319 268.361C427.052 267.797 428.45 267.565 429.014 268.303Z" fill="#F1E136"/>
<path fill-rule="evenodd" clip-rule="evenodd" d="M246.601 196.93L256.172 195.781L262.641 248.059L253.073 249.245L250.624 229.44L242.164 231.257L245.707 244.947L236.375 247.36L231.547 228.702L226.943 206.969L236.375 204.971L239.954 221.869L249.274 219.869L246.601 196.93V196.93ZM216.449 210.146C220.006 213.38 223.248 218.779 226.1 225.779C227.818 229.997 229.158 233.696 229.691 236.794C230.228 239.903 230.144 243.54 227.541 246.427C225.191 249.038 221.682 249.951 218.478 250.399C215.094 250.874 210.763 250.973 205.608 250.973C199.502 250.973 194.552 249.009 191.568 244.839C188.729 240.872 188.435 235.943 189.124 231.597C190.493 223.002 196.215 213.436 202.713 208.56C204.803 206.993 207.331 206.301 209.987 206.747C212.479 207.167 214.646 208.507 216.447 210.146H216.449ZM208.485 216.282C204.079 219.594 199.637 226.887 198.644 233.111C198.157 236.177 198.635 238.148 199.408 239.228C200.035 240.103 201.534 241.332 205.605 241.332C210.797 241.332 214.504 241.221 217.141 240.852C219.25 240.556 220.057 240.168 220.298 240.023C220.329 239.809 220.346 239.336 220.192 238.433C219.855 236.473 218.891 233.636 217.172 229.418C214.526 222.923 211.947 219.083 209.963 217.278C209.187 216.572 208.685 216.347 208.485 216.282V216.282ZM220.26 240.168C220.26 240.168 220.262 240.144 220.284 240.11C220.272 240.153 220.26 240.17 220.26 240.17V240.168ZM308.603 177.374L312.264 227.902L302.647 228.601L301.133 207.719L291.813 222.754L280.668 213.46L285.047 240.223L275.534 241.78L266.978 189.485L289.465 208.242L308.603 177.374V177.374ZM324.185 218.724L315.009 204.026L323.187 198.919L331.074 211.553L342.566 204.944L347.372 213.303L333.486 221.288L328.873 236.063L319.671 233.19L324.185 218.724V218.724ZM350.016 242.638C352.578 242.547 355.738 242.969 358.283 244.646L351.657 254.711L351.79 254.798C351.785 254.81 351.37 254.649 350.445 254.683C349.36 254.721 348.283 255.015 347.516 255.454C346.808 255.859 346.598 256.23 346.516 256.502C346.429 256.796 346.217 257.893 347.27 260.236C349.119 264.338 351.271 267.175 353.725 270.407C354.754 271.764 355.836 273.191 356.974 274.811C360.729 280.171 363.93 286.428 363.93 296.006C363.93 301.099 363.769 309.933 356.979 316.024C350.216 322.095 338.919 323.722 321.698 320.765L323.739 308.887C340.235 311.719 346.533 309.207 348.931 307.055C351.305 304.924 351.879 301.449 351.879 296.006C351.879 289.658 349.946 285.78 347.107 281.73C346.352 280.674 345.578 279.631 344.785 278.602C342.1 275.066 338.736 270.636 336.282 265.182C334.402 261.007 333.826 256.857 334.976 253.034C336.133 249.19 338.76 246.574 341.534 244.991C344.25 243.439 347.295 242.735 350.016 242.638V242.638ZM255.958 269.817C255.594 270.506 255.129 272.087 256.433 275.179C258.035 278.978 259.253 283.929 260.202 289.258C261.419 289.725 263.938 290.318 268.474 290.318C270.677 290.318 271.415 289.74 271.639 289.525C271.919 289.258 272.405 288.568 272.581 286.857C272.96 283.193 271.627 277.496 268.846 271.311C267.457 268.228 263.278 266.507 259.229 267.599C257.404 268.088 256.392 268.997 255.958 269.817V269.817ZM262.159 302.001C264.037 302.242 266.136 302.367 268.474 302.367C272.897 302.367 276.942 301.135 279.976 298.229C282.953 295.375 284.204 291.632 284.57 288.093C285.276 281.26 282.914 273.208 279.834 266.363C275.356 256.415 264.143 253.793 256.093 255.96C251.872 257.098 247.662 259.72 245.302 264.191C242.87 268.795 242.969 274.271 245.329 279.865C246.543 282.74 247.662 287.238 248.611 292.96L248.628 293.061C250.031 301.528 251.229 310.111 251.489 318.166C251.752 326.286 251.041 333.455 248.91 339.213L260.212 343.397C263.112 335.563 263.82 326.633 263.533 317.776C263.365 312.57 262.846 307.248 262.159 302.001V302.001ZM211.949 260.865C219.305 262.603 225.273 267.488 229.585 274.3L219.402 280.745C216.381 275.972 212.821 273.454 209.182 272.593C205.53 271.733 200.876 272.321 195.265 275.579C193.674 276.503 191.92 278.424 190.534 281.244C189.172 284.015 188.403 287.192 188.398 290.075C188.396 292.986 189.158 295.095 190.247 296.378C191.197 297.496 192.961 298.667 196.639 298.667C201.3 298.667 204.157 298.113 206.039 297.481C207.864 296.872 209.071 296.093 210.522 295.074L210.946 294.775C212.347 293.779 214.359 292.352 217.001 291.4C220.038 290.311 223.516 289.947 227.958 290.34C234.203 290.894 238.963 294.893 242.019 299.523C245.104 304.189 246.915 310.099 247.225 316.091C247.845 328.154 242.26 342.129 226.268 347.063C213.108 351.124 201.231 349.586 192.269 345.053C183.554 340.647 177.056 333.038 176 324.691L187.955 323.177C188.365 326.409 191.397 331.107 197.709 334.301C203.773 337.366 212.419 338.726 222.716 335.547C232.067 332.662 235.608 324.835 235.189 316.71C234.977 312.611 233.728 308.831 231.966 306.163C230.175 303.456 228.305 302.471 226.893 302.345C223.675 302.059 222.041 302.398 221.077 302.743C220.04 303.114 219.322 303.62 217.683 304.772C217.606 304.825 217.526 304.881 217.447 304.941C215.68 306.178 213.347 307.742 209.869 308.908C206.446 310.056 202.238 310.716 196.637 310.716C190.057 310.716 184.682 308.441 181.062 304.182C177.581 300.085 176.342 294.881 176.347 290.058C176.354 285.206 177.605 280.224 179.719 275.927C181.806 271.677 184.981 267.616 189.215 265.157C196.798 260.754 204.605 259.132 211.949 260.867V260.865ZM328.169 283.625C323.25 284.131 320.579 286.946 320.124 287.662L318.967 289.479L318.128 305.016L306.094 304.365L307.559 277.197L314.194 276.681C317.706 273.931 322.934 271.499 329.704 271.499C331.907 271.499 334.094 272.133 335.94 273.596C337.716 274.999 338.738 276.821 339.326 278.481C340.44 281.62 340.382 285.264 340.057 288.344C339.382 294.731 337.135 302.068 335.34 306.821L324.067 302.562C325.691 298.26 327.55 292.01 328.073 287.076C328.234 285.541 328.234 284.406 328.169 283.625ZM281.584 311.736C289.851 297.889 291.08 281.451 291.08 277.522H303.131C303.131 282.509 301.772 301.429 291.931 317.913L281.584 311.736V311.736Z" fill="#07064A"/>
<path d="M321.644 250C321.644 249.927 321.62 249.855 321.62 249.783C321.596 249.445 321.572 249.108 321.524 248.77C321.524 248.746 321.524 248.698 321.5 248.65C321.307 247.228 320.969 245.878 320.487 244.553C320.175 243.751 319.813 242.97 319.403 242.215C319.039 241.528 318.628 240.868 318.174 240.238C318.005 239.997 317.812 239.756 317.643 239.515C317.619 239.491 317.571 239.467 317.547 239.419C317.354 239.154 317.137 238.913 316.92 238.671C316.616 238.326 316.302 237.988 315.98 237.659C315.956 237.635 315.932 237.635 315.932 237.611C315.667 237.37 315.426 237.129 315.137 236.888C315.064 236.816 314.968 236.743 314.896 236.671C314.679 236.502 314.462 236.309 314.245 236.141C314.148 236.093 314.076 236.02 313.98 235.948C313.69 235.731 313.377 235.514 313.088 235.321C313.016 235.273 312.919 235.225 312.847 235.177C312.606 235.008 312.365 234.863 312.1 234.719C312.003 234.646 311.907 234.598 311.786 234.526C311.521 234.381 311.256 234.237 310.967 234.092C310.895 234.068 310.846 234.044 310.774 234.02C310.413 233.827 310.051 233.682 309.689 233.514H309.641C309.617 233.489 309.593 233.489 309.569 233.465C307.303 232.574 304.845 232.067 302.266 232.067C301.398 232.067 300.53 232.14 299.687 232.26V232.236C299.639 232.26 299.59 232.26 299.542 232.26C299.229 232.308 298.891 232.357 298.578 232.429C298.506 232.453 298.434 232.453 298.385 232.453C298.024 232.525 297.662 232.622 297.301 232.718C297.156 232.742 297.011 232.79 296.891 232.839C296.65 232.887 296.409 232.959 296.192 233.031L295.758 233.176C295.493 233.273 295.228 233.393 294.963 233.489C294.842 233.538 294.746 233.562 294.649 233.61C294.336 233.755 294.023 233.875 293.734 234.02C293.613 234.092 293.493 234.14 293.396 234.213L292.673 234.574C292.577 234.646 292.48 234.695 292.384 234.743C291.733 235.128 291.082 235.562 290.48 236.02C290.456 236.044 290.431 236.044 290.431 236.068C287.738 238.1 285.633 240.812 284.334 243.926C284.309 243.974 284.285 244.022 284.285 244.046C284.189 244.287 284.093 244.504 284.02 244.745C283.972 244.818 283.948 244.89 283.924 244.962L283.707 245.613L283.635 245.878C283.586 246.095 283.514 246.288 283.466 246.505L283.394 246.77L283.249 247.421C283.249 247.493 283.225 247.589 283.201 247.662C283.177 247.879 283.128 248.12 283.08 248.361C283.08 248.409 283.08 248.457 283.056 248.505C282.936 249.397 282.863 250.289 282.863 251.205C282.863 251.615 282.887 252 282.911 252.41C282.911 252.482 282.936 252.555 282.936 252.651C282.96 252.964 282.984 253.302 283.032 253.615C283.032 253.663 283.032 253.711 283.056 253.76C283.273 255.447 283.731 257.086 284.382 258.628C285.057 260.171 285.9 261.593 286.913 262.895C286.937 262.919 286.961 262.967 287.009 262.991L287.611 263.738C287.684 263.786 287.732 263.859 287.78 263.907C288.045 264.196 288.31 264.485 288.576 264.75C288.6 264.775 288.624 264.799 288.648 264.799C288.889 265.04 289.13 265.281 289.395 265.498C289.491 265.594 289.588 265.666 289.684 265.739C289.877 265.907 290.094 266.1 290.311 266.245C290.407 266.317 290.48 266.389 290.576 266.462C290.745 266.582 290.889 266.703 291.058 266.823C291.203 266.896 291.323 266.992 291.468 267.088C291.54 267.137 291.637 267.185 291.709 267.257L292.432 267.691C292.553 267.763 292.673 267.811 292.769 267.884C292.842 267.932 292.914 267.956 292.986 268.004C293.155 268.101 293.348 268.197 293.541 268.294C293.637 268.318 293.709 268.366 293.782 268.414C294.271 268.643 294.77 268.852 295.276 269.041C297.445 269.884 299.807 270.342 302.266 270.342C303.158 270.342 304.025 270.27 304.869 270.149V270.174C304.917 270.149 304.941 270.149 304.989 270.149C305.327 270.101 305.664 270.053 305.978 269.981C306.05 269.957 306.122 269.957 306.17 269.957C306.532 269.86 306.894 269.788 307.255 269.691C307.4 269.667 307.544 269.619 307.665 269.571C307.906 269.523 308.123 269.45 308.364 269.378L308.798 269.234C309.063 269.137 309.328 269.041 309.593 268.92C309.714 268.872 309.81 268.824 309.93 268.776C310.22 268.655 310.533 268.535 310.822 268.39C310.943 268.318 311.063 268.269 311.184 268.197C311.401 268.077 311.642 267.956 311.859 267.836C311.955 267.787 312.076 267.715 312.172 267.667C312.823 267.281 313.449 266.847 314.052 266.389C314.076 266.389 314.1 266.365 314.124 266.341C316.806 264.297 318.908 261.589 320.222 258.484C320.343 258.195 320.463 257.905 320.56 257.64V257.592C320.656 257.327 320.753 257.038 320.849 256.773C320.849 256.724 320.873 256.7 320.873 256.676L321.09 255.881C321.114 255.833 321.114 255.784 321.138 255.736C321.186 255.495 321.259 255.23 321.307 254.989C321.307 254.917 321.331 254.868 321.331 254.82L321.476 254.049V253.928C321.524 253.639 321.548 253.374 321.596 253.109C321.644 252.482 321.693 251.856 321.693 251.205C321.693 250.795 321.668 250.409 321.644 250V250ZM319.234 251.253C315.161 254.459 308.388 254.627 302.41 251.277C302.41 251.301 302.386 251.349 302.362 251.374C305.857 257.206 311.81 260.388 316.92 259.617C315.414 262.156 313.27 264.258 310.702 265.715C305.881 263.859 302.338 258.17 302.266 251.398C302.242 251.374 302.218 251.349 302.194 251.349C298.795 257.255 298.988 263.907 302.242 267.908C299.181 267.908 296.313 267.088 293.83 265.69C293.806 265.666 293.782 265.666 293.758 265.642V265.594C292.986 260.557 296.24 254.7 302.121 251.301C302.073 251.277 302.001 251.253 301.953 251.205C295.18 251.301 289.443 254.772 287.563 259.52C286.141 257.062 285.322 254.218 285.322 251.205V251.157C285.78 250.795 286.262 250.506 286.768 250.217C287.202 247.421 288.359 244.866 290.046 242.721C289.242 242.648 288.433 242.672 287.636 242.793C289.142 240.254 291.286 238.152 293.854 236.695C294.649 237.008 295.397 237.418 296.096 237.9C298.265 236.888 300.699 236.309 303.254 236.309C303.35 236.309 303.423 236.334 303.495 236.334C303.182 235.659 302.772 235.056 302.314 234.478C304.652 234.502 306.869 234.96 308.894 235.827C309.545 236.093 310.196 236.406 310.798 236.767C310.846 237.105 310.895 237.442 310.895 237.78C311.136 242.552 308.002 247.83 302.555 251.036C302.531 251.084 302.483 251.157 302.459 251.205C309.039 251.133 314.582 247.951 316.703 243.516C316.8 243.323 316.896 243.106 316.993 242.889C317.306 243.468 317.619 244.07 317.884 244.673C318.752 246.674 319.234 248.891 319.234 251.205V251.253V251.253Z" fill="#F71273"/>
<path d="M302.193 251.205H301.952C297.782 248.963 293.251 248.409 289.539 249.373C290.142 247.132 291.299 245.131 292.841 243.492C296.384 244.601 299.855 247.324 302.193 251.205ZM302.554 251.036C302.482 251.084 302.41 251.109 302.338 251.157C302.265 246.65 300.65 242.624 298.168 239.901C300.173 239.142 302.321 238.837 304.459 239.009C305.374 242.624 304.796 246.987 302.554 251.036V251.036Z" fill="#F71273"/>
</g>
<defs>
<clipPath id="clip0">
<rect width="527.711" height="437.729" fill="white" transform="translate(12.1025 62.7178)"/>
</clipPath>
</defs>
</svg>
